<?xml version="1.0" encoding="UTF-8"?>
<svg xmlns="http://www.w3.org/2000/svg" xmlns:xlink="http://www.w3.org/1999/xlink" viewBox="0 0 20 20" width="20px" height="20px">
<g id="surface1318818">
<path style=" stroke:none;fill-rule:nonzero;fill:rgb(100%,100%,100%);fill-opacity:1;" d="M 5.804688 0 C 2.609375 0 0 2.609375 0 5.804688 L 0 14.195312 C 0 17.390625 2.609375 20 5.804688 20 L 14.195312 20 C 17.390625 20 20 17.390625 20 14.195312 L 20 5.804688 C 20 2.609375 17.390625 0 14.195312 0 Z M 5.804688 1.539062 L 14.195312 1.539062 C 16.558594 1.539062 18.460938 3.4375 18.460938 5.804688 L 18.460938 14.195312 C 18.460938 16.558594 16.5625 18.460938 14.195312 18.460938 L 5.804688 18.460938 C 3.441406 18.460938 1.539062 16.5625 1.539062 14.195312 L 1.539062 5.804688 C 1.539062 3.441406 3.4375 1.539062 5.804688 1.539062 Z M 15.769531 3.078125 C 15.132812 3.078125 14.617188 3.59375 14.617188 4.230469 C 14.617188 4.867188 15.132812 5.382812 15.769531 5.382812 C 16.40625 5.382812 16.921875 4.867188 16.921875 4.230469 C 16.921875 3.59375 16.40625 3.078125 15.769531 3.078125 Z M 10 4.617188 C 7.035156 4.617188 4.617188 7.035156 4.617188 10 C 4.617188 12.964844 7.035156 15.382812 10 15.382812 C 12.964844 15.382812 15.382812 12.964844 15.382812 10 C 15.382812 7.035156 12.964844 4.617188 10 4.617188 Z M 10 6.152344 C 12.132812 6.152344 13.847656 7.867188 13.847656 10 C 13.847656 12.132812 12.132812 13.847656 10 13.847656 C 7.867188 13.847656 6.152344 12.132812 6.152344 10 C 6.152344 7.867188 7.867188 6.152344 10 6.152344 Z M 10 6.152344 "/>
</g>
</svg>
